<svg width="93" height="56" viewBox="0 0 93 56" fill="none" xmlns="http://www.w3.org/2000/svg">
<path d="M5.5 43.4L5.275 36.875L25.75 16.85H33.325L5.5 43.4ZM0.475 56V0.499999H6.1V56H0.475ZM27.325 56L10.825 36.875L14.8 32.975L34.675 56H27.325ZM50.0564 56L36.4814 16.85L42.4814 16.775L53.0564 48.65L51.1814 48.5L62.6564 22.85H66.0314L77.5814 48.5L75.3314 48.65L86.1314 16.85H92.0564L78.4814 56H75.1814L63.0314 28.1L65.2814 28.25L53.5064 56H50.0564Z" fill="black"/>
<path d="M-5 65.375H93.1814V69.125H-5V65.375Z" fill="black"/>
</svg>
